<?xml version="1.0" encoding="UTF-8" standalone="no"?>
<!-- Created with Inkscape (http://www.inkscape.org/) -->

<svg
   width="150mm"
   height="150mm"
   viewBox="0 0 150 150"
   version="1.1"
   id="svg1"
   xml:space="preserve"
   inkscape:version="1.3.2 (091e20e, 2023-11-25, custom)"
   sodipodi:docname="Stesha.svg"
   xmlns:inkscape="http://www.inkscape.org/namespaces/inkscape"
   xmlns:sodipodi="http://sodipodi.sourceforge.net/DTD/sodipodi-0.dtd"
   xmlns:xlink="http://www.w3.org/1999/xlink"
   xmlns="http://www.w3.org/2000/svg"
   xmlns:svg="http://www.w3.org/2000/svg"><sodipodi:namedview
     id="namedview1"
     pagecolor="#ffffff"
     bordercolor="#000000"
     borderopacity="0.25"
     inkscape:showpageshadow="2"
     inkscape:pageopacity="0.0"
     inkscape:pagecheckerboard="0"
     inkscape:deskcolor="#d1d1d1"
     inkscape:document-units="mm"
     inkscape:zoom="0.97890839"
     inkscape:cx="403.51069"
     inkscape:cy="215.03544"
     inkscape:window-width="1920"
     inkscape:window-height="991"
     inkscape:window-x="-9"
     inkscape:window-y="-9"
     inkscape:window-maximized="1"
     inkscape:current-layer="layer1" /><defs
     id="defs1"><linearGradient
       id="linearGradient28"
       inkscape:collect="always"><stop
         style="stop-color:#1f3194;stop-opacity:1;"
         offset="0"
         id="stop29" /><stop
         style="stop-color:#000000;stop-opacity:1;"
         offset="1"
         id="stop30" /></linearGradient><linearGradient
       id="linearGradient26"
       inkscape:collect="always"><stop
         style="stop-color:#3850d6;stop-opacity:1;"
         offset="0"
         id="stop27" /><stop
         style="stop-color:#000000;stop-opacity:1;"
         offset="1"
         id="stop28" /></linearGradient><linearGradient
       id="linearGradient25"
       inkscape:collect="always"><stop
         style="stop-color:#3850d6;stop-opacity:1;"
         offset="0"
         id="stop25" /><stop
         style="stop-color:#000000;stop-opacity:1;"
         offset="1"
         id="stop26" /></linearGradient><linearGradient
       id="linearGradient21"
       inkscape:collect="always"><stop
         style="stop-color:#3850d6;stop-opacity:1;"
         offset="0"
         id="stop22" /><stop
         style="stop-color:#070b1c;stop-opacity:1;"
         offset="1"
         id="stop23" /></linearGradient><linearGradient
       id="linearGradient15"
       inkscape:collect="always"><stop
         style="stop-color:#000000;stop-opacity:1;"
         offset="0"
         id="stop16" /><stop
         style="stop-color:#3850d6;stop-opacity:1;"
         offset="1"
         id="stop17" /></linearGradient><filter
       style="color-interpolation-filters:sRGB"
       inkscape:label="Drop Shadow"
       id="filter43"
       x="-0.14631154"
       y="-0.14631154"
       width="1.3535862"
       height="1.3535862"><feFlood
         result="flood"
         in="SourceGraphic"
         flood-opacity="0.509804"
         flood-color="rgb(55,132,44)"
         id="feFlood42" /><feGaussianBlur
         result="blur"
         in="SourceGraphic"
         stdDeviation="0.500000"
         id="feGaussianBlur42" /><feOffset
         result="offset"
         in="blur"
         dx="0.500000"
         dy="0.500000"
         id="feOffset42" /><feComposite
         result="comp1"
         operator="in"
         in="flood"
         in2="offset"
         id="feComposite42" /><feComposite
         result="comp2"
         operator="over"
         in="SourceGraphic"
         in2="comp1"
         id="feComposite43" /></filter><radialGradient
       inkscape:collect="always"
       xlink:href="#linearGradient15"
       id="radialGradient17"
       cx="101.80628"
       cy="142.88272"
       fx="101.80628"
       fy="142.88272"
       r="6.6385951"
       gradientTransform="matrix(1.0135668,2.5610932,-4.5814553,1.8131364,638.9013,-355.85442)"
       gradientUnits="userSpaceOnUse" /><radialGradient
       inkscape:collect="always"
       xlink:href="#linearGradient21"
       id="radialGradient23"
       cx="83.344261"
       cy="146.93521"
       fx="83.344261"
       fy="146.93521"
       r="18.806297"
       gradientTransform="matrix(0.4708095,0.53350508,-2.1492805,1.8967048,357.02301,-173.51713)"
       gradientUnits="userSpaceOnUse" /><radialGradient
       inkscape:collect="always"
       xlink:href="#linearGradient25"
       id="radialGradient26"
       cx="105.76096"
       cy="82.836723"
       fx="105.76096"
       fy="82.836723"
       r="32.558167"
       gradientTransform="matrix(0.99689643,0.07872419,-0.0704412,0.89200767,7.2159632,2.1296933)"
       gradientUnits="userSpaceOnUse" /><radialGradient
       inkscape:collect="always"
       xlink:href="#linearGradient26"
       id="radialGradient28"
       cx="136.07121"
       cy="140.81099"
       fx="136.07121"
       fy="140.81099"
       r="7.7451839"
       gradientTransform="matrix(4.6560918,-3.562654,2.6873475,3.5121391,-873.80874,120.73451)"
       gradientUnits="userSpaceOnUse" /><radialGradient
       inkscape:collect="always"
       xlink:href="#linearGradient28"
       id="radialGradient30"
       cx="137.67995"
       cy="142.99654"
       fx="137.67995"
       fy="142.99654"
       r="16.29627"
       gradientTransform="matrix(1,0,0,2.5216477,0,-217.59034)"
       gradientUnits="userSpaceOnUse" /></defs><g
     inkscape:label="Слой 1"
     inkscape:groupmode="layer"
     id="layer1"><g
       id="g1"
       transform="translate(-33.269601,-58.537584)"><g
         id="layer2"
         inkscape:label="Слой 2"
         style="display:inline"><circle
           style="fill:#c9e3ae;fill-opacity:1;stroke:#c9e3ae;stroke-width:0.7;stroke-dasharray:none;stroke-opacity:1"
           id="circle12"
           cx="108.11362"
           cy="133.7906"
           r="73.791992"
           inkscape:label="кружочек" /><path
           style="display:inline;fill:#f7e9dd;fill-opacity:1;fill-rule:nonzero;stroke:#f7e9dd;stroke-width:0.264583;stroke-opacity:1"
           d="m 88.407548,184.62509 15.271052,22.02816 4.86511,0.54056 19.19017,-23.04171 c 0,0 -5.15708,-4.68482 -6.28411,-7.83824 -2.12263,-5.93907 -0.20271,-18.91988 -0.20271,-18.91988 0,0 -5.86609,6.36107 -9.7978,7.70309 -2.53671,0.86586 -5.46189,0.66249 -8.04095,-0.0676 -2.55712,-0.72388 -6.824669,-4.12183 -6.824669,-4.12183 0,0 2.136104,10.04646 0.405426,14.59534 -1.484514,3.90187 -8.581519,9.12211 -8.581519,9.12211 z"
           id="path34"
           sodipodi:nodetypes="ccccscsscsc" /><path
           style="display:inline;fill:#e6bb96;fill-opacity:1;fill-rule:nonzero;stroke:#f7e9dd;stroke-width:0.264583;stroke-opacity:1"
           d="m 121.58492,157.59669 c 0,0 -4.07715,9.22838 -8.24367,11.35193 -2.72919,1.39099 -7.34516,2.00812 -10.31518,1.25826 -2.20827,-0.55753 -3.908487,-2.7129 -5.318315,-4.50167 -0.980731,-1.24433 -0.786259,-4.59483 -0.786259,-4.59483 7.283824,3.72282 15.678224,1.05982 24.393134,-3.44612"
           id="path35"
           sodipodi:nodetypes="cssscc" /><path
           style="display:inline;fill:#f7e9dd;fill-opacity:1;fill-rule:nonzero;stroke:#f7e9dd;stroke-width:0.264583;stroke-opacity:1"
           d="m 84.036512,148.99423 c 3.363551,4.71036 7.963953,8.73359 12.938169,12.54913 0,0 7.021919,3.99397 9.327269,4.07828 2.45519,0.0898 5.13876,-0.5707 7.35811,-1.62452 3.03865,-1.44285 5.5557,-4.80187 8.12259,-6.97587 2.76853,-2.34478 7.71334,-7.16698 7.71334,-7.16698 9.2231,-19.09525 5.49606,-35.55302 4.51831,-52.462365 L 77.729563,101.6921 Z"
           id="path33"
           sodipodi:nodetypes="ccssscccc" /><path
           style="fill:url(#radialGradient26);fill-rule:nonzero;stroke:#1f3194;stroke-width:0.264583;stroke-opacity:1"
           d="m 74.758205,115.02695 13.37906,-1.35142 c 0.02805,-5.00025 1.145016,-10.00051 2.973123,-15.000764 -0.65053,4.760924 -1.28558,9.523254 0,14.460194 8.333757,-0.74046 16.667512,-0.74262 25.001272,-0.40542 1.10851,-4.72997 1.63734,-9.45994 0.81086,-14.189915 1.45312,4.855675 1.62226,9.700105 2.02713,14.730485 6.12654,-1.17291 14.32495,0.72243 20.2713,2.43255 C 140.48697,103.87481 135.9927,88.781852 126.04403,81.913757 120.27932,77.93407 109.1338,80.278278 105.03002,81.714441 99.507453,80.003192 93.450854,79.420132 86.650701,82.187438 74.464234,90.648034 74.142443,102.69052 74.758205,115.02695 Z"
           id="path8"
           sodipodi:nodetypes="ccccccccaccc"
           inkscape:label="челка" /><path
           style="fill:url(#radialGradient23);fill-rule:nonzero;stroke:#1f3194;stroke-width:0.264583;stroke-opacity:1"
           d="m 74.758205,107.99957 c 0,0 -2.210016,10.4938 -2.837985,15.81161 -0.735529,6.22866 0.404733,12.69135 -1.081135,18.78474 -1.227703,5.03468 -6.351675,14.18992 -6.351675,14.18992 -4.260678,9.40952 -5.330293,18.9254 -4.189404,28.51497 5.180445,-1.29304 10.360889,-1.72145 15.541334,-0.67572 -0.112652,-3.64883 0.970532,-7.29767 2.837981,-10.9465 -1.126182,3.91912 -0.540569,7.83824 1.756847,11.75736 l 6.757104,-0.54057 c 4.008258,-1.92567 6.821725,-5.72886 9.595082,-9.59509 0.835913,-4.68492 0.30498,-9.36985 -0.270285,-14.05477 -8.593737,-5.77636 -14.601563,-14.13864 -21.757864,-21.35244 z"
           id="path11"
           sodipodi:nodetypes="caacccccccccc"
           inkscape:label="задние волосы слева" /><path
           style="fill:url(#radialGradient30);fill-rule:nonzero;stroke:#1f3194;stroke-width:0.264583;stroke-opacity:1"
           d="m 138.4101,101.91817 4.59483,40.00205 6.62196,18.91988 4.1894,23.10929 -15.94676,-0.81086 -3.51369,-13.78448 -0.13514,13.78448 -12.16279,-2.5677 c -1.68781,-7.65805 -1.65238,-15.31609 -0.54057,-22.97414 l 18.51446,-17.16304 z"
           id="path12"
           inkscape:label="задние волосы справа"
           sodipodi:nodetypes="ccccccccccc" /><path
           style="display:inline;fill:url(#radialGradient28);fill-rule:nonzero;stroke:#1f3194;stroke-width:0.264583;stroke-opacity:1"
           d="m 135.03155,114.75667 -9.59509,58.11107 c 0,0 7.11988,-5.08654 9.18966,-8.78423 3.96173,-7.07767 5.23373,-15.69455 5.81111,-23.785 0.5947,-8.33312 -0.52136,-25.00128 -0.52136,-25.00128 z"
           id="path10"
           sodipodi:nodetypes="ccsscc"
           inkscape:label="прядь справа" /><path
           style="display:inline;fill:url(#radialGradient17);fill-rule:nonzero;stroke:#1f3194;stroke-width:0.264583;stroke-opacity:1"
           d="m 79.353033,114.2161 7.297668,58.24621 c 0,0 -7.175852,-4.99461 -9.3248,-8.64909 -2.303862,-3.91792 -2.809663,-8.71957 -3.243408,-13.24392 -1.140586,-11.89735 0.472998,-35.81263 0.472998,-35.81263 z"
           id="path9"
           sodipodi:nodetypes="ccsscc"
           inkscape:label="прядь слева" /><path
           style="fill:#000000;fill-opacity:1;fill-rule:nonzero;stroke:#000000;stroke-width:0.264583;stroke-opacity:1"
           d="m 62.325138,191.78762 25.947269,-7.02738 c 0,0 10.628487,15.77524 14.865623,21.48758 1.12843,1.52131 4.41502,1.6837 5.67596,0.27028 5.33457,-5.97966 19.32531,-22.70386 19.32531,-22.70386 l 22.56872,9.45995 c -11.91,9.9059 -26.43492,13.63107 -42.29945,14.18991 l -9.865369,-0.54057 C 83.785848,204.14987 72.420472,198.50607 62.325138,191.78762 Z"
           id="path30"
           sodipodi:nodetypes="ccssccccc" /><path
           style="fill:#f7e9dd;fill-opacity:1;fill-rule:nonzero;stroke:#f7e9dd;stroke-width:0.264583;stroke-opacity:1"
           d="m 73.807632,124.7602 c -2.982144,-0.64348 -4.97678,2.30474 -5.351351,4.73021 -0.367071,2.3769 0.554517,4.83268 1.433397,7.07143 0.871089,2.2189 3.726834,6.10341 3.726834,6.10341 z"
           id="path31"
           sodipodi:nodetypes="csacc" /><path
           style="fill:#f7e9dd;fill-opacity:1;fill-rule:nonzero;stroke:#f7e9dd;stroke-width:0.264583;stroke-opacity:1"
           d="m 140.41284,119.45662 c 2.08362,1.10755 4.40869,1.66321 4.77799,6.6892 l -1.05115,6.49806 -3.3446,4.96912 z"
           id="path32"
           sodipodi:nodetypes="ccccc" /></g></g></g></svg>
