<?xml version="1.0" encoding="UTF-8" standalone="no"?>
<!-- Created with Inkscape (http://www.inkscape.org/) -->

<svg
   width="150mm"
   height="150mm"
   viewBox="0 0 150 150"
   version="1.1"
   id="svg1"
   xml:space="preserve"
   inkscape:version="1.3.2 (091e20e, 2023-11-25, custom)"
   sodipodi:docname="Yana.svg"
   xmlns:inkscape="http://www.inkscape.org/namespaces/inkscape"
   xmlns:sodipodi="http://sodipodi.sourceforge.net/DTD/sodipodi-0.dtd"
   xmlns="http://www.w3.org/2000/svg"
   xmlns:svg="http://www.w3.org/2000/svg"><sodipodi:namedview
     id="namedview1"
     pagecolor="#ffffff"
     bordercolor="#000000"
     borderopacity="0.25"
     inkscape:showpageshadow="2"
     inkscape:pageopacity="0.0"
     inkscape:pagecheckerboard="0"
     inkscape:deskcolor="#d1d1d1"
     inkscape:document-units="mm"
     inkscape:zoom="0.69219276"
     inkscape:cx="47.674581"
     inkscape:cy="450.01915"
     inkscape:window-width="1920"
     inkscape:window-height="991"
     inkscape:window-x="-9"
     inkscape:window-y="-9"
     inkscape:window-maximized="1"
     inkscape:current-layer="g1" /><defs
     id="defs1"><filter
       style="color-interpolation-filters:sRGB"
       inkscape:label="Drop Shadow"
       id="filter43"
       x="-0.14631154"
       y="-0.14631154"
       width="1.3535862"
       height="1.3535862"><feFlood
         result="flood"
         in="SourceGraphic"
         flood-opacity="0.509804"
         flood-color="rgb(55,132,44)"
         id="feFlood42" /><feGaussianBlur
         result="blur"
         in="SourceGraphic"
         stdDeviation="0.500000"
         id="feGaussianBlur42" /><feOffset
         result="offset"
         in="blur"
         dx="0.500000"
         dy="0.500000"
         id="feOffset42" /><feComposite
         result="comp1"
         operator="in"
         in="flood"
         in2="offset"
         id="feComposite42" /><feComposite
         result="comp2"
         operator="over"
         in="SourceGraphic"
         in2="comp1"
         id="feComposite43" /></filter></defs><g
     inkscape:label="Слой 1"
     inkscape:groupmode="layer"
     id="layer1"><g
       id="g1"
       transform="translate(-2.9977868,14.709396)"><g
         id="layer2"
         inkscape:label="Слой 2"
         style="display:inline"
         transform="translate(-29.814672,-73.007722)"><circle
           style="opacity:1;fill:#bec5de;fill-opacity:1;stroke:#bec5de;stroke-width:0.7;stroke-dasharray:none;stroke-opacity:1"
           id="circle12"
           cx="108.11362"
           cy="133.7906"
           r="73.791992"
           inkscape:label="кружочек" /><path
           style="display:inline;fill:#827455;fill-opacity:1;stroke:#827455;stroke-width:0.264583;stroke-opacity:1"
           d="m 66.258404,194.4711 -10.893822,-9.84266 c 0,0 16.551686,-15.89699 19.207528,-26.47008 3.790655,-15.09086 -5.132429,-30.48959 -6.30695,-46.25096 0.114384,-9.41459 -0.388416,-25.094788 18.06081,-36.694982 8.489834,-4.998744 16.23272,-7.145508 22.74324,-4.586872 l 1.05116,5.63803 3.91796,-4.873553 c 11.1216,2.788655 21.83288,6.808295 26.94787,27.616795 2.06546,0 4.60494,32.754432 2.10232,48.926642 -2.05436,13.2755 18.25193,35.9305 18.25193,35.9305 -2.61323,4.59637 -6.9574,7.65412 -11.84942,10.2249 -9.62426,-5.38168 -20.85251,-10.2287 -27.71236,-16.53185 -1.20986,-7.16699 -0.27945,-13.71283 0.52562,-20.87982 3.43315,-3.75869 6.98935,-8.13851 7.50145,-11.8972 3.2394,-1.48229 5.64739,-3.51886 7.35811,-6.02028 3.16379,-12.38332 0.77183,-10.71388 -0.0956,-12.90058 5.35484,-23.74972 -5.58243,-33.046748 -22.45656,-37.077214 l -19.111973,-0.66892 -18.53861,18.060814 4.424565,28.73552 c -1.642261,3.29615 -0.126382,6.42622 0.544545,9.01062 3.339946,5.6506 7.477575,10.9944 13.15447,15.74617 0.858695,6.56908 1.757996,12.18732 0.223909,19.61097 -8.803964,6.14648 -18.821791,10.62389 -29.050192,14.81177 -4.517106,-3.18533 -8.446715,-6.37065 -10.989381,-9.55598"
           id="path3"
           sodipodi:nodetypes="ccaccccccscccccccccccccccc" /><path
           style="display:inline;fill:#f6f0e2;fill-opacity:1;stroke:#000000;stroke-width:0.264583;stroke-opacity:1"
           d="m 95.164651,159.69139 c 0.498983,3.12212 0.767529,7.21448 1.013564,12.23036 7.755355,2.2184 16.044545,3.63364 24.866135,-2.50013 0.19801,-4.44624 0.56364,-8.49875 1.28384,-12.77093 -8.36173,7.08003 -16.50089,11.94597 -26.285116,3.37856 l 0.202713,0.13514"
           id="path6"
           sodipodi:nodetypes="cccccc"
           inkscape:label="path6" /><path
           style="display:inline;fill:#d1b186;fill-opacity:1;stroke:#f6f0e2;stroke-width:0.264583;stroke-opacity:1"
           d="m 94.961936,158.94811 c 0,0 0.837248,5.42474 2.567699,7.36524 1.448226,1.62401 3.705305,2.73193 5.878675,2.83798 4.43418,0.21639 8.88711,-2.01586 12.50064,-4.59483 2.67145,-1.90661 6.21653,-7.63552 6.21653,-7.63552 -8.39866,5.75608 -14.79173,5.17632 -27.0284,2.83798"
           id="path10"
           sodipodi:nodetypes="caaacc" /><path
           style="display:inline;fill:#f6f0e2;fill-opacity:1;stroke:#f6f0e2;stroke-width:0.264583;stroke-opacity:1"
           d="m 98.813486,162.05638 c 0,0 4.265024,3.0658 6.757104,3.24341 3.43909,0.2451 6.79661,-1.53659 9.86536,-3.10827 6.36299,-3.25886 14.29187,-14.98337 13.78449,-15.40619 l 2.29742,-10.13565 4.1894,-17.70361 -0.946,-20.406445 -20.81187,-12.568211 -23.109284,1.756846 -17.838748,18.78474 8.649089,37.70463 c 4.598789,6.93645 9.544504,13.56678 17.163039,17.83875 z"
           id="path4"
           sodipodi:nodetypes="casccccccccc" /><path
           style="fill:#827455;fill-opacity:1;stroke:#000000;stroke-width:0.264583;stroke-opacity:1"
           d="m 132.00358,107.6072 c 2.93339,5.20118 1.72007,17.48746 1.72007,17.48746 l 3.05792,0.9556 c 3.6443,-9.8678 4.12915,-22.22231 -5.25579,-33.445951 -8.24167,-7.082213 -13.56362,-14.144143 -33.254827,-9.651545 l -17.296332,5.924713 0.573358,17.200773 c 1.106741,-2.59624 2.061944,-5.37432 4.395753,-6.498072 -6.318692,-1.435313 1.596038,-4.22619 11.084941,-7.166988 -0.515198,-1.798973 -0.301293,-2.946961 6.211387,1.528958 7.26035,-4.192248 8.78,-3.76004 6.88031,-0.57336 11.46038,-0.261565 20.09924,-0.189002 12.42278,1.815637 4.12952,1.440532 14.25232,9.914145 9.46043,12.422775 z"
           id="path2"
           sodipodi:nodetypes="ccccccccccccc" /><path
           style="display:inline;fill:#e3d3ae;fill-opacity:1;stroke:#e3d3ae;stroke-width:0.264583;stroke-opacity:1"
           d="m 104.21917,93.404226 c 0,0 -5.801449,-5.82466 -12.43307,-6.351674 -6.182492,2.595538 -9.662556,10.535763 -10.135653,17.163038 0.441127,7.81616 8.470176,14.51857 9.459943,22.63629 1.2523,10.2709 -10.053126,10.93861 -15.406193,16.0819 -6.269754,6.02405 1.541937,16.99177 1.756848,16.96032 0,0 -11.992985,-9.54431 -11.757358,-16.21704 0.192959,-5.46442 9.053396,-7.30666 10.541079,-12.56821 1.592077,-5.63077 -2.188244,-11.7023 -2.567698,-17.36575 -0.692611,-10.33741 -3.435541,-23.048369 13.37906,-30.879953 13.112862,-5.848711 18.408142,9.880415 17.163042,10.541079 z"
           id="path1"
           sodipodi:nodetypes="cccsscaascc" /><path
           style="fill:#f6f0e2;fill-opacity:1;stroke:#f6f0e2;stroke-width:0.264583;stroke-opacity:1"
           d="m 133.72365,125.28578 c 3.01718,-0.0305 5.70226,0.41336 5.20802,5.39913 -1.44679,9.48916 -2.73371,8.74703 -4.0613,10.60714 -3.43132,3.39963 -4.41753,3.54218 -5.11245,3.5835 z"
           id="path5"
           sodipodi:nodetypes="ccccc" /><path
           style="fill:#f6f0e2;fill-opacity:1;stroke:#f6f0e2;stroke-width:0.264583;stroke-opacity:1"
           d="m 81.452419,201.92477 c 4.445086,-5.18559 4.756476,-11.01961 4.682432,-16.91409 l -20.090754,9.29729 c 4.375115,2.69463 8.563101,6.37724 15.200806,7.89868"
           id="path7"
           sodipodi:nodetypes="cccc" /><path
           style="fill:#f6f0e2;fill-opacity:1;stroke:#f6f0e2;stroke-width:0.264583;stroke-opacity:1"
           d="m 127.99006,182.62168 c -0.55224,7.14979 -0.20184,14.15321 3.91796,20.54537 6.19862,-1.86139 12.43344,-4.42038 17.86969,-8.69595 z"
           id="path8"
           sodipodi:nodetypes="cccc" /><path
           style="fill:#000000;fill-opacity:1;stroke:#000000;stroke-width:0.264583;stroke-opacity:1"
           d="m 81.35686,202.78481 c 3.912184,-6.11511 5.024922,-11.88029 4.873551,-17.48745 l 9.460425,-6.21139 c 0.07855,-1.7646 0.441795,-4.3833 0.76448,-6.88031 10.426594,2.74356 18.208934,1.02697 24.845554,-2.29344 0.004,2.74626 -0.1245,5.52582 0.86004,8.02703 l 5.73359,4.58687 c 0.66866,7.03563 -0.23653,14.26799 4.20464,20.83205 -15.4505,5.19512 -31.71252,7.08175 -50.455601,-1.14672"
           id="path9"
           sodipodi:nodetypes="ccccccccc" /></g></g></g></svg>
